<svg width="24" height="35" viewBox="0 0 24 35" fill="none" xmlns="http://www.w3.org/2000/svg">
<path d="M14.1639 12C16.7931 12 19.4223 12 22.1311 12C22.1311 12.2516 22.1311 12.5031 22.1311 12.7623C21.96 12.7937 21.96 12.7937 21.7853 12.8256C20.5267 13.0675 19.524 13.4019 18.5418 14.2264C18.4522 14.3013 18.4522 14.3013 18.3608 14.3777C17.6908 14.9445 17.064 15.551 16.4381 16.1627C16.3134 16.2839 16.1887 16.405 16.0639 16.5261C15.7397 16.8409 15.4162 17.1562 15.0928 17.4716C14.763 17.7931 14.4326 18.114 14.1023 18.435C13.5699 18.9524 13.0379 19.4702 12.5063 19.9884C12.3704 20.1209 12.2344 20.2533 12.0984 20.3857C12.0103 20.4716 11.9221 20.5574 11.8314 20.6459C11.6215 20.8478 11.4061 21.0381 11.1824 21.2255C11.1138 21.2831 11.0452 21.3407 10.9745 21.4001C10.9234 21.4427 10.8723 21.4853 10.8197 21.5292C10.8558 22.0142 11.129 22.2656 11.4652 22.5953C11.574 22.7056 11.6826 22.8162 11.791 22.927C11.844 22.9811 11.897 23.0352 11.9516 23.0909C12.2135 23.365 12.4478 23.6588 12.6851 23.9528C12.9137 24.2321 13.1507 24.5039 13.3893 24.7751C13.8167 25.2614 14.2375 25.7525 14.6557 26.2462C15.0721 26.7377 15.4909 27.2269 15.916 27.7113C16.462 28.3336 16.9975 28.9641 17.5251 29.6011C18.0407 30.2202 18.5781 30.8151 19.1416 31.3933C19.2758 31.5319 19.4077 31.6726 19.5396 31.8133C20.7555 33.0657 22.2477 33.715 24 33.9172C24 34.2002 24 34.4832 24 34.7748C23.3963 34.9207 22.8474 34.9948 22.2264 34.9941C22.1443 34.9945 22.0622 34.9949 21.9776 34.9953C21.8047 34.9959 21.6318 34.9959 21.4589 34.9955C21.2001 34.9952 20.9414 34.9974 20.6826 34.9999C19.2863 35.0049 17.9377 34.88 16.623 34.3937C16.623 34.3308 16.623 34.2679 16.623 34.2031C16.4925 34.1895 16.4925 34.1895 16.3594 34.1755C14.8695 33.8665 13.5239 32.0649 12.5902 30.9632C12.48 30.834 12.48 30.834 12.3677 30.7022C12.227 30.5362 12.0868 30.3698 11.947 30.203C11.705 29.9151 11.4615 29.6285 11.2176 29.3421C9.24878 27.0304 9.24878 27.0304 8.54508 26.133C8.16383 25.6478 7.76618 25.1802 7.3528 24.7203C7.06945 24.4024 6.82784 24.0717 6.59016 23.7209C6.58333 24.9162 6.57808 26.1115 6.57488 27.3069C6.57334 27.8619 6.57125 28.4169 6.5679 28.972C6.5647 29.5077 6.56293 30.0433 6.56217 30.579C6.56162 30.7834 6.56056 30.9877 6.55896 31.192C6.55682 31.4783 6.55653 31.7646 6.55666 32.0509C6.5556 32.1352 6.55454 32.2196 6.55345 32.3066C6.55593 32.7872 6.60628 33.1211 6.88525 33.536C7.3812 33.8724 7.97062 33.9265 8.55738 34.0125C8.55738 34.2955 8.55738 34.5785 8.55738 34.8701C5.73344 34.8701 2.90951 34.8701 0 34.8701C0 34.5871 0 34.3041 0 34.0125C0.142262 33.9795 0.142262 33.9795 0.287398 33.9459C0.411655 33.9148 0.535912 33.8837 0.663934 33.8517C0.787177 33.8218 0.91042 33.792 1.0374 33.7612C1.47722 33.593 1.661 33.367 1.86885 32.9643C1.87869 32.7157 1.88252 32.4697 1.882 32.221C1.88223 32.1434 1.88245 32.0657 1.88268 31.9857C1.88331 31.7241 1.88322 31.4624 1.88314 31.2007C1.88343 31.0137 1.88377 30.8267 1.88414 30.6396C1.88501 30.1305 1.88524 29.6213 1.8853 29.1122C1.8854 28.6876 1.88576 28.263 1.88611 27.8384C1.88691 26.8367 1.88715 25.8351 1.88708 24.8334C1.88702 23.7994 1.88806 22.7653 1.88961 21.7312C1.8909 20.8442 1.89142 19.9572 1.89136 19.0703C1.89134 18.5402 1.89162 18.0101 1.89266 17.4799C1.89361 16.9813 1.89362 16.4827 1.8929 15.9841C1.8928 15.801 1.89303 15.6179 1.89363 15.4347C1.89438 15.1849 1.89393 14.9352 1.89317 14.6854C1.89368 14.6128 1.89418 14.5401 1.8947 14.4653C1.89158 14.001 1.82981 13.6512 1.55648 13.2667C1.28159 13.078 0.99845 13.044 0.670082 12.9827C0.544937 12.9587 0.419793 12.9348 0.290856 12.9101C0.194873 12.8928 0.0988909 12.8755 0 12.8576C0 12.6061 0 12.3545 0 12.0953C2.82393 12.0953 5.64787 12.0953 8.55738 12.0953C8.55738 12.3154 8.55738 12.5355 8.55738 12.7623C8.27968 12.8544 8.00339 12.9437 7.71939 13.0158C7.63279 13.0383 7.54619 13.0608 7.45697 13.0839C7.37443 13.1043 7.29188 13.1247 7.20684 13.1457C6.92723 13.2623 6.83588 13.3627 6.68852 13.62C6.57446 14.1126 6.57687 14.5946 6.579 15.0964C6.57898 15.1857 6.57897 15.275 6.57895 15.367C6.57902 15.6609 6.57979 15.9548 6.58056 16.2487C6.58074 16.453 6.58088 16.6573 6.58098 16.8615C6.58136 17.3983 6.58232 17.935 6.58341 18.4717C6.58442 19.0197 6.58487 19.5678 6.58536 20.1158C6.58642 21.1905 6.58809 22.2651 6.59016 23.3398C6.63177 23.299 6.67337 23.2582 6.71624 23.2161C6.90755 23.0288 7.09926 22.8418 7.29098 22.6549C7.35641 22.5907 7.42183 22.5265 7.48924 22.4604C7.86329 22.0962 8.24467 21.7583 8.65574 21.4339C8.76786 21.3159 8.87696 21.195 8.98156 21.0706C9.23226 20.7849 9.49399 20.5356 9.78689 20.2904C10.1421 19.9929 10.444 19.6782 10.7463 19.3312C10.9234 19.1412 11.1099 18.9787 11.3115 18.8134C11.5658 18.6039 11.7911 18.3936 12.0061 18.1463C12.3586 17.7426 12.7435 17.3745 13.1311 17.0028C13.6275 16.5256 14.1107 16.0477 14.5574 15.5258C14.6406 15.4313 14.7237 15.3369 14.8094 15.2396C15.5148 14.5164 15.5148 14.5164 15.75 13.5961C15.7459 13.4782 15.7419 13.3603 15.7377 13.2388C15.2301 12.9541 14.7346 12.8552 14.1639 12.7623C14.1639 12.5108 14.1639 12.2592 14.1639 12Z" fill="#C1911D"/>
<path d="M12.1083 0.101815C12.4046 0.273784 12.6321 0.469514 12.7879 0.781103C12.8276 1.25437 12.8509 1.69744 12.6666 2.13968C12.4952 2.33542 12.3257 2.4825 12.1083 2.62488C12.5838 3.61351 13.1806 4.46762 13.953 5.24499C14.0185 5.31492 14.0839 5.38484 14.1514 5.45689C14.9207 6.22008 15.9143 6.63113 16.9931 6.65815C18.5771 6.5765 19.8327 5.71908 21.0405 4.75978C20.9766 4.67285 20.9126 4.58591 20.8467 4.49633C20.6092 4.10715 20.6129 3.94181 20.6821 3.51C20.7855 3.19317 20.9792 3.02324 21.2347 2.81896C21.2668 2.78694 21.2988 2.75492 21.3318 2.72192C21.728 2.66972 22.1328 2.63125 22.4931 2.82351C22.7002 2.99514 22.8615 3.15962 22.9823 3.40121C23.0158 3.91095 23.0384 4.25773 22.6911 4.66274C22.5504 4.71853 22.5504 4.71853 22.4068 4.77544C22.0154 5.00959 21.9384 5.27546 21.8138 5.69191C21.778 5.80208 21.778 5.80208 21.7415 5.91448C21.6655 6.14963 21.5927 6.38561 21.5199 6.62176C21.4708 6.77566 21.4214 6.9295 21.3718 7.08327C21.2503 7.46205 21.1314 7.84157 21.0135 8.22151C20.9198 8.52364 20.8252 8.8255 20.7306 9.12737C20.6395 9.41818 20.5488 9.70909 20.458 10C20.3213 9.97272 20.1847 9.94542 20.048 9.91812C19.9145 9.89148 19.9145 9.89148 19.7783 9.86429C19.5855 9.82564 19.3928 9.78673 19.2001 9.74754C18.8934 9.6853 18.5865 9.62426 18.2796 9.56332C18.1287 9.53236 18.1287 9.53236 17.9748 9.50077C16.0853 9.12877 14.2178 9.09818 12.2972 9.10765C12.0291 9.1087 11.761 9.10866 11.4929 9.10862C9.68422 9.10867 7.905 9.13061 6.11304 9.39956C5.99806 9.41635 5.88307 9.43315 5.7646 9.45045C4.7341 9.60424 3.71152 9.79239 2.69064 10C2.65309 9.8933 2.61555 9.78659 2.57686 9.67666C2.5258 9.53173 2.47472 9.3868 2.42365 9.24187C2.38368 9.12829 2.38368 9.12829 2.34291 9.01241C2.19967 8.60621 2.05323 8.20162 1.90179 7.79838C1.71577 7.29074 1.56882 6.77424 1.42355 6.25369C1.30181 5.81855 1.17166 5.38613 1.04012 4.95387C0.965654 4.94286 0.891187 4.93185 0.814464 4.92051C0.504384 4.8445 0.353796 4.71065 0.163282 4.45615C-0.0204795 4.1014 -0.0451501 3.78316 0.0692265 3.40121C0.324041 3.04373 0.623504 2.79085 1.04657 2.65976C1.45842 2.62431 1.68975 2.74052 2.00495 3.00092C2.29412 3.27349 2.39284 3.41175 2.42365 3.8197C2.39802 4.1975 2.31812 4.35663 2.1081 4.66274C2.1081 4.72679 2.1081 4.79084 2.1081 4.85683C2.32483 5.03837 2.54105 5.20668 2.76953 5.37236C2.86895 5.44458 2.86895 5.44458 2.97039 5.51827C4.10219 6.32223 5.27316 6.74074 6.67131 6.60356C8.11418 6.3067 9.23206 5.50045 10.0452 4.27193C10.2886 3.8898 10.5203 3.50115 10.7491 3.11009C10.846 2.94828 10.9431 2.78651 11.0403 2.62488C10.9863 2.62088 10.9322 2.61688 10.8765 2.61275C10.5323 2.4826 10.3814 2.23582 10.1665 1.94559C10.0089 1.47287 9.99952 1.11774 10.2211 0.665866C10.7733 0.0290715 11.3003 -0.131978 12.1083 0.101815Z" fill="#C0901E"/>
</svg>
