<svg width="49" height="49" viewBox="0 0 49 49" fill="none" xmlns="http://www.w3.org/2000/svg">
<rect x="1.25" y="1.25" width="46.5" height="46.5" rx="23.25" fill="#1A1C22"/>
<rect x="1.25" y="1.25" width="46.5" height="46.5" rx="23.25" stroke="#272831" stroke-width="2.5"/>
<path d="M26.7156 17.7729C29.0759 17.7729 31.4363 17.7729 33.8681 17.7729C33.8681 17.9988 33.8681 18.2246 33.8681 18.4573C33.7144 18.4854 33.7144 18.4854 33.5577 18.5141C32.4277 18.7313 31.5276 19.0315 30.6458 19.7716C30.5653 19.8389 30.5653 19.8389 30.4833 19.9075C29.8818 20.4163 29.3191 20.9608 28.7572 21.51C28.6453 21.6188 28.5333 21.7275 28.4212 21.8362C28.1303 22.1188 27.8398 22.4018 27.5495 22.685C27.2534 22.9736 26.9568 23.2618 26.6602 23.5499C26.1823 24.0144 25.7047 24.4793 25.2275 24.9445C25.1054 25.0634 24.9833 25.1823 24.8612 25.3012C24.7821 25.3782 24.703 25.4553 24.6215 25.5347C24.4331 25.716 24.2398 25.8868 24.0389 26.0551C23.9773 26.1068 23.9158 26.1585 23.8523 26.2118C23.8064 26.25 23.7606 26.2883 23.7133 26.3277C23.7457 26.7631 23.991 26.9889 24.2928 27.2848C24.3905 27.3839 24.488 27.4831 24.5853 27.5826C24.6329 27.6311 24.6804 27.6797 24.7295 27.7297C24.9646 27.9758 25.175 28.2396 25.3879 28.5035C25.5932 28.7543 25.8059 28.9983 26.0202 29.2417C26.4039 29.6783 26.7817 30.1192 27.1571 30.5624C27.5309 31.0036 27.9068 31.4428 28.2885 31.8777C28.7787 32.4364 29.2594 33.0023 29.7331 33.5743C30.1959 34.13 30.6784 34.6641 31.1842 35.1831C31.3047 35.3076 31.4232 35.4339 31.5415 35.5602C32.6331 36.6846 33.9728 37.2674 35.5459 37.449C35.5459 37.7031 35.5459 37.9571 35.5459 38.2189C35.0039 38.3498 34.5111 38.4164 33.9537 38.4157C33.8799 38.4161 33.8062 38.4165 33.7303 38.4169C33.575 38.4173 33.4198 38.4174 33.2646 38.417C33.0322 38.4168 32.8 38.4188 32.5677 38.4209C31.3142 38.4254 30.1035 38.3133 28.9232 37.8767C28.9232 37.8203 28.9232 37.7638 28.9232 37.7056C28.806 37.6934 28.806 37.6934 28.6865 37.6809C27.349 37.4035 26.141 35.7861 25.3027 34.797C25.2039 34.681 25.2039 34.681 25.103 34.5627C24.9767 34.4137 24.8508 34.2643 24.7253 34.1146C24.5081 33.8561 24.2895 33.5988 24.0705 33.3417C22.303 31.2663 22.303 31.2663 21.6713 30.4608C21.329 30.0252 20.972 29.6054 20.6009 29.1925C20.3466 28.9071 20.1297 28.6103 19.9163 28.2953C19.9101 29.3684 19.9054 30.4415 19.9026 31.5146C19.9012 32.0129 19.8993 32.5111 19.8963 33.0094C19.8934 33.4903 19.8918 33.9712 19.8911 34.4522C19.8907 34.6356 19.8897 34.819 19.8883 35.0024C19.8863 35.2595 19.8861 35.5165 19.8862 35.7735C19.8853 35.8492 19.8843 35.925 19.8833 36.003C19.8856 36.4345 19.9308 36.7343 20.1812 37.1068C20.6264 37.4087 21.1556 37.4573 21.6823 37.5345C21.6823 37.7886 21.6823 38.0427 21.6823 38.3045C19.1472 38.3045 16.612 38.3045 14 38.3045C14 38.0504 14 37.7963 14 37.5345C14.1277 37.5049 14.1277 37.5049 14.258 37.4747C14.3696 37.4468 14.4811 37.4189 14.596 37.3902C14.7067 37.3634 14.8173 37.3366 14.9313 37.309C15.3262 37.1579 15.4912 36.9551 15.6778 36.5935C15.6866 36.3703 15.69 36.1495 15.6896 35.9263C15.6898 35.8565 15.69 35.7868 15.6902 35.715C15.6907 35.4801 15.6907 35.2452 15.6906 35.0103C15.6908 34.8424 15.6911 34.6745 15.6915 34.5066C15.6923 34.0495 15.6925 33.5924 15.6925 33.1353C15.6926 32.7541 15.6929 32.3729 15.6932 31.9918C15.694 31.0925 15.6942 30.1933 15.6941 29.2941C15.6941 28.3657 15.695 27.4374 15.6964 26.509C15.6975 25.7128 15.698 24.9165 15.698 24.1202C15.6979 23.6443 15.6982 23.1684 15.6991 22.6925C15.7 22.2449 15.7 21.7973 15.6993 21.3496C15.6992 21.1852 15.6995 21.0208 15.7 20.8564C15.7007 20.6322 15.7003 20.408 15.6996 20.1837C15.7 20.1185 15.7005 20.0533 15.701 19.9861C15.6982 19.5693 15.6427 19.2553 15.3973 18.9101C15.1505 18.7407 14.8964 18.7102 14.6016 18.6551C14.4892 18.6336 14.3769 18.6121 14.2611 18.59C14.1749 18.5744 14.0888 18.5589 14 18.5429C14 18.317 14 18.0912 14 17.8585C16.5352 17.8585 19.0703 17.8585 21.6823 17.8585C21.6823 18.0561 21.6823 18.2537 21.6823 18.4573C21.433 18.5399 21.185 18.6202 20.93 18.6849C20.8523 18.7051 20.7746 18.7253 20.6945 18.746C20.6203 18.7643 20.5462 18.7827 20.4699 18.8015C20.2189 18.9062 20.1369 18.9963 20.0046 19.2273C19.9022 19.6695 19.9044 20.1022 19.9063 20.5527C19.9062 20.6329 19.9062 20.7131 19.9062 20.7957C19.9063 21.0595 19.907 21.3233 19.9077 21.5872C19.9078 21.7706 19.908 21.954 19.908 22.1374C19.9084 22.6192 19.9092 23.101 19.9102 23.5828C19.9111 24.0749 19.9115 24.5669 19.912 25.0589C19.9129 26.0236 19.9144 26.9884 19.9163 27.9532C19.9536 27.9165 19.991 27.8799 20.0295 27.8421C20.2012 27.674 20.3733 27.5061 20.5454 27.3383C20.6042 27.2807 20.6629 27.223 20.7234 27.1637C21.0592 26.8368 21.4016 26.5334 21.7706 26.2422C21.8713 26.1362 21.9692 26.0277 22.0631 25.916C22.2882 25.6595 22.5232 25.4358 22.7861 25.2156C23.105 24.9485 23.376 24.666 23.6474 24.3545C23.8064 24.1839 23.9738 24.038 24.1548 23.8896C24.3831 23.7016 24.5854 23.5127 24.7785 23.2908C25.0949 22.9283 25.4404 22.5978 25.7884 22.2642C26.234 21.8358 26.6678 21.4067 27.0688 20.9382C27.1435 20.8534 27.2181 20.7686 27.2951 20.6812C27.9284 20.032 27.9284 20.032 28.1395 19.2059C28.1358 19.1 28.1322 18.9941 28.1284 18.8851C27.6728 18.6295 27.2279 18.5407 26.7156 18.4573C26.7156 18.2315 26.7156 18.0056 26.7156 17.7729Z" fill="#C1911D"/>
<path d="M24.8702 7.0914C25.1362 7.24579 25.3404 7.4215 25.4803 7.70123C25.5159 8.1261 25.5369 8.52386 25.3714 8.92088C25.2175 9.09661 25.0654 9.22865 24.8702 9.35647C25.297 10.244 25.8328 11.0108 26.5262 11.7087C26.585 11.7714 26.6438 11.8342 26.7043 11.8989C27.395 12.584 28.2869 12.9531 29.2555 12.9773C30.6775 12.904 31.8047 12.1343 32.889 11.2731C32.8316 11.195 32.7742 11.117 32.715 11.0366C32.5018 10.6872 32.5051 10.5387 32.5673 10.1511C32.66 9.86665 32.834 9.7141 33.0634 9.53071C33.0921 9.50196 33.1209 9.47321 33.1505 9.44359C33.5062 9.39672 33.8696 9.36219 34.193 9.53479C34.3789 9.68887 34.5238 9.83653 34.6323 10.0534C34.6623 10.511 34.6826 10.8224 34.3708 11.186C34.2445 11.236 34.2445 11.236 34.1156 11.2871C33.7642 11.4973 33.6951 11.736 33.5833 12.1099C33.5511 12.2088 33.5511 12.2088 33.5183 12.3097C33.4501 12.5208 33.3847 12.7327 33.3194 12.9446C33.2753 13.0828 33.2309 13.2209 33.1864 13.359C33.0773 13.699 32.9706 14.0397 32.8648 14.3808C32.7806 14.652 32.6957 14.923 32.6108 15.194C32.529 15.4551 32.4475 15.7163 32.3661 15.9774C32.2434 15.953 32.1207 15.9284 31.998 15.9039C31.8782 15.88 31.8782 15.88 31.7559 15.8556C31.5828 15.8209 31.4097 15.786 31.2367 15.7508C30.9614 15.6949 30.6859 15.6401 30.4104 15.5854C30.275 15.5576 30.275 15.5576 30.1368 15.5293C28.4405 15.1953 26.7639 15.1678 25.0397 15.1763C24.7991 15.1773 24.5584 15.1772 24.3177 15.1772C22.6939 15.1773 21.0967 15.197 19.488 15.4384C19.3847 15.4535 19.2815 15.4686 19.1751 15.4841C18.25 15.6222 17.332 15.7911 16.4155 15.9774C16.3818 15.8817 16.3481 15.7859 16.3134 15.6872C16.2675 15.5571 16.2217 15.4269 16.1758 15.2968C16.1399 15.1949 16.1399 15.1949 16.1033 15.0908C15.9747 14.7262 15.8433 14.363 15.7073 14.001C15.5403 13.5452 15.4084 13.0815 15.278 12.6142C15.1687 12.2236 15.0518 11.8354 14.9338 11.4473C14.8669 11.4374 14.8001 11.4275 14.7312 11.4174C14.4528 11.3491 14.3176 11.229 14.1466 11.0005C13.9816 10.682 13.9595 10.3963 14.0621 10.0534C14.2909 9.73249 14.5597 9.50547 14.9396 9.38778C15.3093 9.35596 15.517 9.46029 15.7999 9.69406C16.0595 9.93876 16.1482 10.0629 16.1758 10.4291C16.1528 10.7683 16.0811 10.9111 15.8925 11.186C15.8925 11.2435 15.8925 11.3009 15.8925 11.3602C16.0871 11.5232 16.2812 11.6743 16.4863 11.823C16.5756 11.8878 16.5756 11.8878 16.6667 11.954C17.6827 12.6757 18.734 13.0515 19.9891 12.9283C21.2845 12.6618 22.288 11.938 23.018 10.8351C23.2366 10.492 23.4446 10.1431 23.6499 9.79206C23.737 9.6468 23.8241 9.50157 23.9114 9.35647C23.8629 9.35288 23.8143 9.34929 23.7643 9.34558C23.4553 9.22874 23.3198 9.0072 23.1269 8.74665C22.9854 8.32226 22.977 8.00345 23.176 7.59778C23.6717 7.0261 24.1448 6.88152 24.8702 7.0914Z" fill="#C0901E"/>
</svg>
