<svg width="14" height="14" viewBox="0 0 14 14" fill="none" xmlns="http://www.w3.org/2000/svg">
<g clip-path="url(#clip0_37374_18326)">
<path opacity="0.1" d="M12.0781 9.07129C12.4472 8.90733 12.8245 9.28398 12.6611 9.65332H12.6426C12.7828 9.70713 12.9033 9.8023 12.9893 9.92578C13.0753 10.0493 13.123 10.196 13.125 10.3467C13.127 10.4972 13.0835 10.6448 13.001 10.7705C12.9184 10.8963 12.7998 10.9942 12.6611 11.0518L7.52148 13.1094C7.10874 13.2788 6.64614 13.2788 6.2334 13.1094L1.34766 10.9082C1.2081 10.8525 1.08823 10.7556 1.00391 10.6309C0.919676 10.5062 0.875 10.3586 0.875 10.208C0.875078 10.0576 0.919807 9.91065 1.00391 9.78613C1.08816 9.66153 1.02687 9.68054 1.16602 9.625C1.16606 9.21709 1.59011 8.94707 1.95996 9.11914L5.76465 10.8887C6.47953 11.173 7.27536 11.173 7.99023 10.8887L12.0781 9.07129ZM11.5332 5.70703C11.7916 5.607 12.0843 5.66848 12.2803 5.86426L12.833 6.41699H12.8145C12.9527 6.47188 12.9898 6.64185 13.0742 6.76465C13.1587 6.88739 13.2049 7.03253 13.207 7.18164C13.209 7.33075 13.1669 7.47752 13.0859 7.60254C13.0047 7.72765 12.8879 7.82621 12.751 7.88477L7.61133 9.94824C7.19735 10.1112 6.73721 10.1112 6.32324 9.94824L1.16504 7.88477C1.0275 7.82809 0.991913 7.65619 0.90918 7.53223C0.826382 7.4083 0.781291 7.26247 0.78125 7.11328C0.78125 6.96405 0.826374 6.8183 0.90918 6.69434C0.992016 6.57035 1.02742 6.5489 1.16504 6.49219L1.68848 5.9248C1.90126 5.69426 2.23381 5.61858 2.52539 5.73438L6.07324 7.14453C6.63506 7.37066 7.2624 7.37066 7.82422 7.14453L11.5332 5.70703ZM6.3584 0.995117C6.75787 0.835806 7.2021 0.835794 7.60156 0.995117L12.7129 3.05176C12.8517 3.10746 12.9708 3.2044 13.0547 3.3291C13.1385 3.45377 13.1836 3.60133 13.1836 3.75195C13.1835 3.90237 13.1383 4.0493 13.0547 4.17383C12.9708 4.29851 12.8516 4.39547 12.7129 4.45117L7.60156 6.51465C7.20102 6.66789 6.75895 6.66787 6.3584 6.51465L1.22852 4.45117C1.08974 4.39547 0.970569 4.29853 0.886719 4.17383C0.803064 4.04928 0.757875 3.9024 0.757812 3.75195C0.757812 3.6013 0.802903 3.45378 0.886719 3.3291C0.970569 3.2044 1.08974 3.10746 1.22852 3.05176L6.3584 0.995117Z" fill="#676A72"/>
<path d="M6.98238 13.2605C6.72126 13.2613 6.46241 13.2119 6.21994 13.115L1.44165 11.2002C1.23125 11.1159 1.05092 10.9705 0.923901 10.7827C0.796885 10.595 0.729004 10.3735 0.729004 10.1468C0.729004 9.9201 0.796885 9.69862 0.923901 9.51086C1.05092 9.32311 1.23125 9.17769 1.44165 9.09335C1.49575 9.0698 1.55406 9.05746 1.61306 9.05707C1.67206 9.05669 1.73053 9.06827 1.78493 9.09112C1.83933 9.11397 1.88853 9.1476 1.92956 9.19C1.97059 9.2324 2.00261 9.28268 2.02366 9.33779C2.04643 9.39372 2.05719 9.45381 2.05524 9.51416C2.05328 9.57451 2.03866 9.63378 2.01231 9.68811C1.98597 9.74244 1.94849 9.79063 1.90232 9.82954C1.85615 9.86845 1.80231 9.89722 1.7443 9.91398C1.69581 9.93376 1.65436 9.96763 1.62532 10.0112C1.59627 10.0548 1.58095 10.1061 1.58134 10.1584C1.58013 10.211 1.59512 10.2626 1.62428 10.3063C1.65343 10.3501 1.69533 10.3838 1.7443 10.4029L6.52841 12.3119C6.80839 12.4251 7.12144 12.4251 7.40142 12.3119L12.2205 10.3912C12.2694 10.3721 12.3113 10.3384 12.3405 10.2947C12.3696 10.251 12.3846 10.1993 12.3834 10.1468C12.3815 10.0964 12.3652 10.0477 12.3363 10.0064C12.3073 9.96506 12.2671 9.93299 12.2205 9.91398C12.1648 9.89363 12.114 9.86201 12.0711 9.82111C12.0282 9.78021 11.9943 9.73091 11.9713 9.67628C11.9484 9.62165 11.937 9.56288 11.9378 9.50364C11.9386 9.44439 11.9516 9.38595 11.976 9.33197C11.9971 9.27686 12.0291 9.22658 12.0701 9.18418C12.1111 9.14178 12.1603 9.10815 12.2147 9.0853C12.2691 9.06245 12.3276 9.05087 12.3866 9.05125C12.4456 9.05164 12.5039 9.06398 12.558 9.08753C12.7684 9.17187 12.9488 9.31729 13.0758 9.50504C13.2028 9.69279 13.2707 9.91428 13.2707 10.141C13.2707 10.3676 13.2028 10.5891 13.0758 10.7769C12.9488 10.9646 12.7684 11.1101 12.558 11.1944L7.74481 13.115C7.50234 13.2119 7.2435 13.2613 6.98238 13.2605ZM6.98238 10.1177C6.7209 10.1164 6.4621 10.065 6.21994 9.96636L1.44165 8.05737C1.23125 7.97303 1.05092 7.82762 0.923901 7.63986C0.796885 7.45211 0.729004 7.23062 0.729004 7.00394C0.729004 6.77726 0.796885 6.55577 0.923901 6.36801C1.05092 6.18026 1.23125 6.03484 1.44165 5.9505L2.02366 5.72352C2.0774 5.69981 2.13536 5.6872 2.19409 5.68642C2.25281 5.68565 2.31109 5.69673 2.36543 5.71901C2.41977 5.74129 2.46906 5.77431 2.51034 5.81608C2.55162 5.85786 2.58404 5.90754 2.60567 5.96214C2.62839 6.01634 2.64008 6.07453 2.64006 6.1333C2.64004 6.19207 2.62831 6.25025 2.60555 6.30443C2.5828 6.35862 2.54947 6.40772 2.50752 6.44888C2.46557 6.49004 2.41584 6.52243 2.36123 6.54415L1.77922 6.77113C1.73025 6.79023 1.68835 6.82393 1.6592 6.86766C1.63004 6.91139 1.61505 6.96303 1.61626 7.01558C1.61587 7.06795 1.63119 7.11923 1.66024 7.1628C1.68928 7.20637 1.73073 7.24024 1.77922 7.26002L6.56333 9.16901C6.84331 9.28227 7.15636 9.28227 7.43634 9.16901L12.2205 7.24838C12.2689 7.2286 12.3104 7.19473 12.3394 7.15116C12.3685 7.10759 12.3838 7.0563 12.3834 7.00394C12.3846 6.95139 12.3696 6.89975 12.3405 6.85602C12.3113 6.81229 12.2694 6.77859 12.2205 6.75949L11.6384 6.53251C11.5849 6.51149 11.5361 6.48014 11.4947 6.44025C11.4533 6.40036 11.4202 6.3527 11.3972 6.30001C11.3743 6.24732 11.3619 6.19061 11.3609 6.13314C11.3598 6.07567 11.3701 6.01855 11.3911 5.96505C11.4121 5.91155 11.4435 5.86271 11.4834 5.82133C11.5232 5.77994 11.5709 5.74682 11.6236 5.72385C11.6763 5.70088 11.733 5.68852 11.7905 5.68746C11.8479 5.68641 11.905 5.69668 11.9586 5.7177L12.5406 5.9505C12.751 6.03484 12.9313 6.18026 13.0583 6.36801C13.1853 6.55577 13.2532 6.77726 13.2532 7.00394C13.2532 7.23062 13.1853 7.45211 13.0583 7.63986C12.9313 7.82762 12.751 7.97303 12.5406 8.05737L7.76227 9.96636C7.51467 10.0672 7.24972 10.1186 6.98238 10.1177ZM6.98238 7.00394C6.7209 7.00261 6.4621 6.95125 6.21994 6.85261L1.44165 4.91453C1.23125 4.83018 1.05092 4.68477 0.923901 4.49701C0.796885 4.30926 0.729004 4.08777 0.729004 3.86109C0.729004 3.63441 0.796885 3.41292 0.923901 3.22517C1.05092 3.03741 1.23125 2.892 1.44165 2.80765L6.21994 0.892845C6.70953 0.697828 7.25523 0.697828 7.74481 0.892845L12.5231 2.80765C12.7335 2.892 12.9138 3.03741 13.0409 3.22517C13.1679 3.41292 13.2357 3.63441 13.2357 3.86109C13.2357 4.08777 13.1679 4.30926 13.0409 4.49701C12.9138 4.68477 12.7335 4.83018 12.5231 4.91453L7.74481 6.82351C7.50464 6.93214 7.24576 6.99341 6.98238 7.00394ZM6.54587 6.04362C6.82585 6.15688 7.1389 6.15688 7.41888 6.04362L12.2205 4.09389C12.2689 4.07411 12.3104 4.04025 12.3394 3.99667C12.3685 3.9531 12.3838 3.90182 12.3834 3.84945C12.3823 3.79889 12.3662 3.7498 12.3372 3.70837C12.3082 3.66694 12.2676 3.63502 12.2205 3.61665L7.41888 1.70184C7.1389 1.58858 6.82585 1.58858 6.54587 1.70184L1.7443 3.61665C1.69533 3.63574 1.65343 3.66945 1.62428 3.71318C1.59512 3.75691 1.58013 3.80855 1.58134 3.86109C1.58322 3.91146 1.59959 3.96022 1.6285 4.00152C1.6574 4.04281 1.69761 4.07489 1.7443 4.09389L6.54587 6.04362Z" fill="#676A72"/>
</g>
<defs>
<clipPath id="clip0_37374_18326">
<rect width="14" height="14" fill="white"/>
</clipPath>
</defs>
</svg>
