<svg width="14" height="12" viewBox="0 0 14 12" fill="none" xmlns="http://www.w3.org/2000/svg">
<g clip-path="url(#clip0_40053_4427)">
<path fill-rule="evenodd" clip-rule="evenodd" d="M3.24902 0.751465C2.51677 0.751465 1.97494 1.39238 1.9992 2.08744C2.02248 2.75519 1.99223 3.62004 1.77451 4.32532C1.55602 5.03259 1.18676 5.48077 0.583496 5.5383V6.18779C1.18676 6.24544 1.55602 6.6934 1.77449 7.40076C1.99223 8.10604 2.02246 8.97089 1.99917 9.63865C1.97491 10.3336 2.51674 10.9746 3.24912 10.9746H10.7523C11.4845 10.9746 12.0263 10.3337 12.002 9.63865C11.9787 8.97089 12.009 8.10604 12.2267 7.40076C12.4452 6.6934 12.8135 6.24526 13.4168 6.18779V5.5383C12.8136 5.48065 12.4452 5.03269 12.2267 4.32532C12.0089 3.62014 11.9787 2.75519 12.002 2.08744C12.0263 1.39248 11.4845 0.751465 10.7523 0.751465H3.24892H3.24902ZM9.28407 7.04449C9.28407 8.00155 8.57019 8.58198 7.38549 8.58198H5.3688C5.31111 8.58198 5.25579 8.55906 5.21499 8.51827C5.1742 8.47748 5.15129 8.42215 5.15129 8.36447V3.36164C5.15129 3.30396 5.1742 3.24863 5.21499 3.20784C5.25579 3.16705 5.31111 3.14413 5.3688 3.14413H7.37401C8.36185 3.14413 9.01016 3.67922 9.01016 4.50075C9.01016 5.07738 8.57403 5.59359 8.01841 5.68403V5.71411C8.77477 5.79707 9.28407 6.32093 9.28407 7.04449ZM7.16559 3.83365H6.01571V5.45787H6.9842C7.73289 5.45787 8.14571 5.15638 8.14571 4.61751C8.14564 4.1125 7.79072 3.83365 7.16559 3.83365ZM6.01571 6.10231V7.89224H7.2079C7.98743 7.89224 8.40032 7.57945 8.40032 6.99162C8.40032 6.4038 7.97585 6.10221 7.15777 6.10221H6.01571V6.10231Z" fill="#7727ED"/>
</g>
<defs>
<clipPath id="clip0_40053_4427">
<rect width="12.8333" height="10.5" fill="white" transform="translate(0.583496 0.75)"/>
</clipPath>
</defs>
</svg>
