<svg width="16" height="16" viewBox="0 0 16 16" fill="none" xmlns="http://www.w3.org/2000/svg">
<path d="M7.98798 0.600199C6.16897 0.596601 4.41111 1.26081 3.04392 2.46831C1.67672 3.67581 0.794066 5.3437 0.561402 7.15932C0.328739 8.97493 0.762046 10.8136 1.7801 12.3307C2.79815 13.8478 4.33104 14.9391 6.09143 15.4001V13.6505L5.73019 13.6126L5.19585 13.5596L4.88728 13.5217C4.74212 13.5205 4.59872 13.4896 4.46583 13.4308C4.21963 13.3034 4.02145 13.0987 3.90138 12.8476C3.84487 12.6997 3.7743 12.5577 3.69066 12.4235C3.5116 12.1414 3.29369 11.8864 3.04342 11.666C3.02021 11.6434 3.00175 11.6164 2.98914 11.5864C2.97653 11.5565 2.97004 11.5243 2.97004 11.4918C2.97004 11.4593 2.97653 11.4272 2.98914 11.3972C3.00175 11.3673 3.02021 11.3402 3.04342 11.3176C3.08083 11.2744 3.13148 11.245 3.18737 11.234C3.24326 11.223 3.30119 11.2311 3.35199 11.257C3.67379 11.432 3.968 11.6541 4.225 11.916C4.36931 12.0582 4.49799 12.2156 4.60882 12.3856C4.66644 12.4504 4.74275 12.4954 4.82708 12.5143H4.97759H5.2109L5.73019 12.4386L6.23443 12.3856C6.39364 11.9247 6.7008 11.5303 7.10744 11.2646C6.69083 11.2133 6.28005 11.122 5.88071 10.9919C5.20389 10.8174 4.60849 10.4113 4.19656 9.84334C3.78463 9.27538 3.58183 8.58091 3.62292 7.87896C3.63179 7.17344 3.89988 6.49621 4.37552 5.97785C4.19199 5.35001 4.1687 4.68574 4.30778 4.04644C4.31913 4.00415 4.33864 3.96453 4.36521 3.92984C4.39177 3.89514 4.42488 3.86606 4.46262 3.84425C4.50037 3.82245 4.54201 3.80834 4.58518 3.80275C4.62834 3.79715 4.67218 3.80017 4.71419 3.81164C5.34952 3.93037 5.93003 4.2517 6.3699 4.72811C7.593 4.32978 8.90977 4.32978 10.1329 4.72811C10.5628 4.25867 11.1291 3.93792 11.751 3.81164C11.8357 3.79051 11.9253 3.80313 12.001 3.84688C12.0767 3.89063 12.1328 3.96212 12.1574 4.04644C12.2942 4.65677 12.2787 5.29171 12.1122 5.89453C12.6431 6.41833 12.9484 7.1309 12.9626 7.87896C12.9626 9.5377 11.9165 10.9086 9.47059 11.257C9.78018 11.4542 10.0351 11.7271 10.2114 12.0503C10.3878 12.3735 10.4799 12.7364 10.4791 13.1051V15.2259C12.1508 14.6414 13.5623 13.4788 14.462 11.9451C15.3618 10.4114 15.6916 8.60604 15.3926 6.85054C15.0936 5.09504 14.1852 3.5033 12.8293 2.35871C11.4733 1.21412 9.75772 0.590966 7.98798 0.600199Z" fill="black"/>
</svg>
