<svg width="30" height="30" viewBox="0 0 30 30" fill="none" xmlns="http://www.w3.org/2000/svg">
<path d="M18.0263 19.1187L13.7913 5.53206C13.5426 4.73413 12.8039 4.19064 11.9682 4.19064C10.9512 4.19064 10.1127 4.98755 10.0609 6.00317L9.55956 15.8424C9.53772 16.2711 9.58942 16.7003 9.71243 17.1115L11.9675 24.6501C12.1461 25.2471 12.6954 25.656 13.3185 25.656H15.6251C16.2389 25.656 16.7822 25.259 16.9686 24.6743L18.0189 21.38C18.2533 20.6449 18.2559 19.8554 18.0263 19.1187Z" fill="#CBCED3"/>
<path d="M24.1835 6.13877L29.9298 23.8098C30.2261 24.721 29.547 25.6561 28.5888 25.6561H23.5312C22.712 25.6561 21.987 25.1257 21.7391 24.3449L16.1175 6.63983C15.7325 5.42743 16.6374 4.19064 17.9095 4.19064H21.5015C22.723 4.19064 23.8057 4.97708 24.1835 6.13877Z" fill="#0B5C22"/>
<path d="M8.1879 4.19064H11.9853C13.2531 4.19064 14.1576 5.41976 13.7804 6.63017L8.2148 24.4919C7.96998 25.2776 7.24267 25.8127 6.41973 25.8127H1.41109C0.463848 25.8127 -0.214003 24.8974 0.0622481 23.9913L5.49021 6.18843C5.85207 5.00158 6.94711 4.19064 8.1879 4.19064Z" fill="#0B5C22"/>
</svg>
