<svg width="16" height="16" viewBox="0 0 16 16" fill="none" xmlns="http://www.w3.org/2000/svg">
<g clip-path="url(#clip0_36082_25660)">
<g filter="url(#filter0_d_36082_25660)">
<path d="M9.61389 10.1966L7.35526 2.95041C7.22261 2.52485 6.82864 2.23499 6.38289 2.23499C5.84052 2.23499 5.3933 2.66 5.3657 3.20166L5.0983 8.44928C5.08665 8.67789 5.11423 8.90681 5.17983 9.12612L6.38256 13.1467C6.47781 13.4651 6.77075 13.6832 7.10309 13.6832H8.33326C8.6606 13.6832 8.95036 13.4715 9.04979 13.1596L9.60998 11.4027C9.73499 11.0106 9.73636 10.5895 9.61389 10.1966Z" fill="#947AFF"/>
</g>
<g filter="url(#filter1_d_36082_25660)">
<path d="M12.8979 3.27399L15.9626 12.6986C16.1206 13.1845 15.7584 13.6832 15.2474 13.6832H12.55C12.113 13.6832 11.7264 13.4003 11.5942 12.9839L8.59598 3.54122C8.39067 2.89461 8.8733 2.23499 9.55173 2.23499H11.4674C12.119 2.23499 12.6964 2.65442 12.8979 3.27399Z" fill="white"/>
<path d="M4.36688 2.23499H6.39218C7.06834 2.23499 7.5507 2.89052 7.34955 3.53606L4.38123 13.0623C4.25066 13.4813 3.86276 13.7668 3.42386 13.7668H0.752581C0.247386 13.7668 -0.114135 13.2786 0.033199 12.7954L2.92811 3.30047C3.12111 2.66748 3.70513 2.23499 4.36688 2.23499Z" fill="white"/>
</g>
</g>
<defs>
<filter id="filter0_d_36082_25660" x="4.0957" y="2.23499" width="6.60913" height="13.4482" filterUnits="userSpaceOnUse" color-interpolation-filters="sRGB">
<feFlood flood-opacity="0" result="BackgroundImageFix"/>
<feColorMatrix in="SourceAlpha" type="matrix" values="0 0 0 0 0 0 0 0 0 0 0 0 0 0 0 0 0 0 127 0" result="hardAlpha"/>
<feOffset dy="1"/>
<feGaussianBlur stdDeviation="0.5"/>
<feComposite in2="hardAlpha" operator="out"/>
<feColorMatrix type="matrix" values="0 0 0 0 0 0 0 0 0 0 0 0 0 0 0 0 0 0 0.25 0"/>
<feBlend mode="normal" in2="BackgroundImageFix" result="effect1_dropShadow_36082_25660"/>
<feBlend mode="normal" in="SourceGraphic" in2="effect1_dropShadow_36082_25660" result="shape"/>
</filter>
<filter id="filter1_d_36082_25660" x="-1" y="2.23499" width="18" height="13.5317" filterUnits="userSpaceOnUse" color-interpolation-filters="sRGB">
<feFlood flood-opacity="0" result="BackgroundImageFix"/>
<feColorMatrix in="SourceAlpha" type="matrix" values="0 0 0 0 0 0 0 0 0 0 0 0 0 0 0 0 0 0 127 0" result="hardAlpha"/>
<feOffset dy="1"/>
<feGaussianBlur stdDeviation="0.5"/>
<feComposite in2="hardAlpha" operator="out"/>
<feColorMatrix type="matrix" values="0 0 0 0 0 0 0 0 0 0 0 0 0 0 0 0 0 0 0.25 0"/>
<feBlend mode="normal" in2="BackgroundImageFix" result="effect1_dropShadow_36082_25660"/>
<feBlend mode="normal" in="SourceGraphic" in2="effect1_dropShadow_36082_25660" result="shape"/>
</filter>
<clipPath id="clip0_36082_25660">
<rect width="16" height="16" fill="white"/>
</clipPath>
</defs>
</svg>
