<svg xmlns="http://www.w3.org/2000/svg" width="32" height="24" viewBox="0 0 32 24" fill="none">
	<path d="M25.7957 2.5481L31.9252 21.3972C32.2412 22.3692 31.5168 23.3665 30.4947 23.3665H25.0999C24.2261 23.3665 23.4529 22.8008 23.1884 21.9679L17.192 3.08256C16.7813 1.78934 17.7466 0.470093 19.1035 0.470093H22.9349C24.2379 0.470093 25.3928 1.30896 25.7957 2.5481Z" fill="white"/>
	<path d="M8.73376 0.470093H12.7844C14.1367 0.470093 15.1014 1.78115 14.6991 3.07225L8.76245 22.1247C8.50132 22.9628 7.72552 23.5337 6.84771 23.5337H1.50516C0.494771 23.5337 -0.22827 22.5573 0.066398 21.5908L5.85623 2.60106C6.24221 1.33509 7.41025 0.470093 8.73376 0.470093Z" fill="white"/>
</svg>