<svg width="14" height="14" viewBox="0 0 14 14" fill="none" xmlns="http://www.w3.org/2000/svg">
<g clip-path="url(#clip0_37374_18332)">
<path opacity="0.1" d="M8.61523 0.974609C9.54232 0.985599 10.4279 1.35748 11.0781 2.01074C11.7284 2.66408 12.0901 3.54547 12.0859 4.46191V8.56055L12.2168 8.60254C12.453 8.67835 12.6603 8.82551 12.8086 9.02441C12.9569 9.22333 13.0397 9.46388 13.0449 9.71191C13.0501 9.96007 12.9768 10.2042 12.8369 10.4092C12.697 10.614 12.4965 10.7699 12.2637 10.8555L11.3945 11.168C11.3411 11.1881 11.2923 11.2194 11.252 11.2598C11.2117 11.3001 11.1802 11.349 11.1602 11.4023L10.8486 12.3135C10.7714 12.5503 10.6208 12.7565 10.4189 12.9023C10.217 13.0482 9.97368 13.1261 9.72461 13.125H9.69824C9.44689 13.1248 9.20183 13.0427 9.00098 12.8916C8.80033 12.7405 8.65382 12.5284 8.58398 12.2871L8.51465 12.0576H4.3125C4.15676 12.0558 4.00079 12.0438 3.84668 12.0215H3.72168C3.59113 12.0002 3.46184 11.9707 3.33496 11.9336L3.22461 11.8975C3.10982 11.8614 3.0002 11.815 2.89062 11.7686L2.72266 11.6855C2.64429 11.6442 2.56078 11.5975 2.48242 11.5459C2.40401 11.4942 2.32513 11.4426 2.25195 11.3857L2.05371 11.2305L1.90234 11.0908C1.81878 11.0082 1.7346 10.921 1.65625 10.8281L1.56738 10.7139C1.49424 10.6158 1.42632 10.5176 1.3584 10.4092L1.30664 10.3164C1.22554 10.1792 1.15471 10.0358 1.09668 9.8877C0.930792 9.47683 0.845593 9.03808 0.845703 8.5957V4.46191C0.841498 3.54545 1.20421 2.66409 1.85449 2.01074C2.50474 1.35747 3.39024 0.985538 4.31738 0.974609H8.61523Z" fill="#676A72"/>
<path d="M6.78432 12.0867H3.92598C3.09668 12.0836 2.3023 11.7524 1.71644 11.1654C1.13058 10.5785 0.800852 9.78347 0.799316 8.95416V3.89083C0.800858 3.06206 1.13077 2.26767 1.7168 1.68164C2.30283 1.09561 3.09721 0.765702 3.92598 0.76416H8.99515C9.82439 0.76416 10.6197 1.09358 11.206 1.67994C11.7924 2.2663 12.1218 3.06158 12.1218 3.89083V6.96499C12.1218 7.08103 12.0757 7.19231 11.9937 7.27435C11.9116 7.3564 11.8003 7.40249 11.6843 7.40249C11.5683 7.40249 11.457 7.3564 11.375 7.27435C11.2929 7.19231 11.2468 7.08103 11.2468 6.96499V3.89083C11.2468 3.29365 11.0096 2.72093 10.5873 2.29866C10.165 1.87639 9.59233 1.63916 8.99515 1.63916H3.92598C3.33286 1.64531 2.76611 1.88525 2.34888 2.30685C1.93164 2.72846 1.69762 3.29767 1.69765 3.89083V8.95416C1.69765 9.55188 1.93469 10.1252 2.35679 10.5484C2.7789 10.9716 3.3516 11.2101 3.94932 11.2117H6.80765C6.92368 11.2117 7.03496 11.2578 7.11701 11.3398C7.19906 11.4218 7.24515 11.5331 7.24515 11.6492C7.24515 11.7652 7.19906 11.8765 7.11701 11.9585C7.03496 12.0406 6.92368 12.0867 6.80765 12.0867H6.78432ZM10.8676 12.3725L11.2002 11.41C11.2203 11.3568 11.2516 11.3085 11.2918 11.2683C11.332 11.2281 11.3803 11.1969 11.4335 11.1767L12.3493 10.85C12.6024 10.7595 12.8207 10.5918 12.9734 10.3706C13.1261 10.1493 13.2055 9.88573 13.2003 9.61697C13.1952 9.34821 13.1058 9.08785 12.9447 8.87264C12.7836 8.65743 12.5591 8.49822 12.3027 8.41749L9.08848 7.40249C8.85902 7.33092 8.61441 7.32315 8.38087 7.38002C8.14734 7.4369 7.93368 7.55626 7.76282 7.72532C7.59196 7.89438 7.47034 8.10676 7.411 8.33968C7.35166 8.57261 7.35684 8.81729 7.42598 9.04749L8.42932 12.3258C8.50476 12.5868 8.66252 12.8163 8.87906 12.9803C9.09561 13.1443 9.35936 13.2339 9.63098 13.2358H9.66015C9.93182 13.2446 10.199 13.1652 10.4219 13.0096C10.6448 12.854 10.8114 12.6305 10.8968 12.3725H10.8676ZM8.82598 8.23666L12.0401 9.25166C12.1218 9.27851 12.193 9.33047 12.2434 9.40013C12.2938 9.46978 12.321 9.55358 12.321 9.63958C12.321 9.72557 12.2938 9.80937 12.2434 9.87903C12.193 9.94868 12.1218 10.0006 12.0401 10.0275L11.1243 10.3542C10.9485 10.4179 10.7892 10.5201 10.658 10.6533C10.5267 10.7865 10.427 10.9474 10.366 11.1242L10.0335 12.0867C10.0066 12.1684 9.95467 12.2395 9.88502 12.2899C9.81536 12.3403 9.73156 12.3675 9.64557 12.3675C9.55957 12.3675 9.47577 12.3403 9.40612 12.2899C9.33646 12.2395 9.2845 12.1684 9.25765 12.0867L8.25432 8.80249C8.23347 8.73593 8.22841 8.66543 8.23954 8.59657C8.25067 8.52772 8.27768 8.4624 8.31844 8.40579C8.35919 8.34919 8.41257 8.30285 8.47434 8.27046C8.53611 8.23806 8.60458 8.2205 8.67432 8.21916C8.73514 8.21551 8.79616 8.22142 8.85515 8.23666H8.82598Z" fill="#676A72"/>
</g>
<defs>
<clipPath id="clip0_37374_18332">
<rect width="14" height="14" fill="white"/>
</clipPath>
</defs>
</svg>
