<svg width="14" height="10" viewBox="0 0 14 10" fill="none" xmlns="http://www.w3.org/2000/svg">
<g clip-path="url(#clip0_40053_556)">
<mask id="mask0_40053_556" style="mask-type:luminance" maskUnits="userSpaceOnUse" x="0" y="0" width="14" height="10">
<path d="M0 0.799805H14V9.19981H0V0.799805Z" fill="white"/>
</mask>
<g mask="url(#mask0_40053_556)">
<path fill-rule="evenodd" clip-rule="evenodd" d="M7 0.799805C5.13333 0.799805 3.96667 1.73314 3.5 3.59981C4.2 2.66647 5.01667 2.31647 5.95 2.54981C6.48252 2.68281 6.86311 3.06936 7.28441 3.49688C7.97067 4.19351 8.76504 4.99981 10.5 4.99981C12.3667 4.99981 13.5333 4.06647 14 2.19981C13.3 3.13314 12.4833 3.48314 11.55 3.24981C11.0175 3.11681 10.6369 2.73025 10.2156 2.30273C9.52933 1.6061 8.73496 0.799805 7 0.799805ZM3.5 4.99981C1.63333 4.99981 0.466667 5.93314 0 7.79981C0.7 6.86647 1.51667 6.51647 2.45 6.74981C2.98252 6.88307 3.36311 7.26936 3.78441 7.69688C4.47067 8.39351 5.26504 9.19981 7 9.19981C8.86667 9.19981 10.0333 8.26647 10.5 6.39981C9.8 7.33314 8.98333 7.68314 8.05 7.44981C7.51748 7.31681 7.13689 6.93025 6.71559 6.50273C6.02933 5.8061 5.23496 4.99981 3.5 4.99981Z" fill="#38BDF8"/>
</g>
</g>
<defs>
<clipPath id="clip0_40053_556">
<rect width="14" height="8.55556" fill="white" transform="translate(0 0.799805)"/>
</clipPath>
</defs>
</svg>
